<?xml version="1.0" encoding="UTF-8" standalone="no"?>
<!-- Created with Inkscape (http://www.inkscape.org/) -->

<svg
   xmlns:dc="http://purl.org/dc/elements/1.1/"
   xmlns:cc="http://creativecommons.org/ns#"
   xmlns:rdf="http://www.w3.org/1999/02/22-rdf-syntax-ns#"
   xmlns:svg="http://www.w3.org/2000/svg"
   xmlns="http://www.w3.org/2000/svg"
   xmlns:sodipodi="http://sodipodi.sourceforge.net/DTD/sodipodi-0.dtd"
   xmlns:inkscape="http://www.inkscape.org/namespaces/inkscape"
   width="1052.3622"
   height="744.09448"
   id="svg2"
   version="1.1"
   inkscape:version="0.91 r13725"
   sodipodi:docname="smok-org-logo.svg">
  <title
     id="title2985">Smok Org Logo</title>
  <defs
     id="defs4" />
  <sodipodi:namedview
     id="base"
     pagecolor="#ffffff"
     bordercolor="#666666"
     borderopacity="1.0"
     inkscape:pageopacity="0.0"
     inkscape:pageshadow="2"
     inkscape:zoom="0.35"
     inkscape:cx="-760.90355"
     inkscape:cy="54.99952"
     inkscape:document-units="px"
     inkscape:current-layer="layer1"
     showgrid="false"
     inkscape:window-width="1920"
     inkscape:window-height="1031"
     inkscape:window-x="0"
     inkscape:window-y="0"
     inkscape:window-maximized="1" />
  <metadata
     id="metadata7">
    <rdf:RDF>
      <cc:Work
         rdf:about="">
        <dc:format>image/svg+xml</dc:format>
        <dc:type
           rdf:resource="http://purl.org/dc/dcmitype/StillImage" />
        <dc:title>Smok Org Logo</dc:title>
        <dc:creator>
          <cc:Agent>
            <dc:title>Pavle Jonoski</dc:title>
          </cc:Agent>
        </dc:creator>
        <dc:rights>
          <cc:Agent>
            <dc:title>Smok Org (c)</dc:title>
          </cc:Agent>
        </dc:rights>
        <dc:publisher>
          <cc:Agent>
            <dc:title>Smok Org</dc:title>
          </cc:Agent>
        </dc:publisher>
        <dc:description>Copyright Smok Org (c) 2014</dc:description>
      </cc:Work>
    </rdf:RDF>
  </metadata>
  <g
     inkscape:label="Layer 1"
     inkscape:groupmode="layer"
     id="layer1"
     transform="translate(0,-308.2677)">
    <text
       xml:space="preserve"
       style="font-size:40px;font-style:normal;font-weight:normal;line-height:125%;letter-spacing:0px;word-spacing:0px;fill:#000000;fill-opacity:1;stroke:none;font-family:Sans"
       x="-582.85712"
       y="-119.06639"
       id="text2985"
       sodipodi:linespacing="125%"><tspan
         sodipodi:role="line"
         id="tspan2987"
         x="-582.85712"
         y="-119.06639" /></text>
    <g
       id="g3494"
       transform="translate(14.038781,57.238066)"
       inkscape:export-filename="/home/pavle/pictures/smok-org-logo.png"
       inkscape:export-xdpi="30.51"
       inkscape:export-ydpi="30.51">
      <path
         id="path3484"
         transform="translate(0,308.2677)"
         d="M 439.07031,130.71484 C 397.93347,130.1508 320.36084,168.84061 337.7168,195.97461 l 20.33984,50.06836 c -42.68548,24.80868 -28.00634,42.15264 11.07031,36.55859 l 2.60938,3.66797 c 1.045,4.44751 -6.64159,4.84599 -11.83594,3.69922 3.60533,4.01209 10.5648,5.60822 18.16016,2.65039 0.2076,1.52732 -1.708,4.69777 -5.92383,5.59375 6.80664,0.57299 5.61118,1.39722 5.03906,2.60156 -1.91514,3.48743 -4.81251,5.20906 -8.41016,5.66797 4.37866,0.87015 8.64727,2.10533 14,-0.27148 -3.29132,2.31761 -9.12353,5.55619 -7.01562,8.1914 -0.0369,-0.1722 -0.0495,-0.33686 -0.041,-0.49414 0.12709,-2.35914 5.18081,-3.05432 9.91797,-2.52539 -1.71333,2.29511 -3.82983,2.56913 -5.86133,3.27344 2.9579,-0.0451 6.78683,-1.18076 8.54688,0.27148 2.19084,1.10629 0.42492,2.21207 -0.58008,3.31836 0.34671,-0.0756 0.72281,-0.21753 1.09375,-0.34765 1.11284,-0.39036 2.17992,-0.67898 2.2793,1.21094 l 1.70117,5.49023 2.10352,17.61914 c -5.23292,1.4768 -11.34293,2.25118 -12.0293,7.36523 -10.32643,6.74813 -17.96283,16.85954 -31.66602,19.38672 -21.58351,4.96696 -16.47113,8.59964 -20.74609,12.70118 -1.6065,6.55986 -3.84979,11.94504 -1.23828,18.48046 -2.68998,5.66789 -11.76771,10.62117 -9.09961,16.28907 -8.86488,6.40513 -17.71743,18.38958 -17.91992,20.16992 L 290.20898,450.5 c -1.72452,3.7577 -5.30543,9.72661 -8.82617,15.89844 a 292.85715,292.85715 0 0 0 241.47461,127.69531 292.85715,292.85715 0 0 0 81.44141,-11.70313 l -12.89453,-91.44531 -1.38086,-22.91992 54.64648,32.66406 c 9.19316,5.09821 20.1502,1.3153 22.76953,-1.41601 11.83491,-12.34089 34.92598,-32.24173 43.40235,-44.34766 1.34541,-1.92151 8.4554,-2.04374 9.71289,-3.89453 10.62791,-15.64247 18.09837,-28.4423 22.13867,-33.04102 9.81942,-10.58742 -0.40234,-21.98863 -14.17774,-33.29882 l 7.80469,-14.70703 c 7.69308,-6.15987 17.95192,-7.831 22.26367,-19.90821 l 11.92969,-5.26172 c 1.29166,-0.56979 1.77555,-0.582 1.71875,-2.0957 l 0.94141,-10.79883 c 0.0839,-0.96246 0.22929,-1.88582 -0.0352,-2.83398 l -1.0957,-6.78906 c 6.17309,-3.81923 4.6219,-10.17489 3.15234,-13.63672 4.33258,-6.54038 2.57444,-10.55518 -1.9375,-13.48633 2.53985,-5.59342 4.35799,-9.86017 -2.96289,-14.04492 -0.19449,-4.27044 -0.44315,-10.34476 -6.81836,-11.28711 l -3.39062,-21.66211 c -0.14945,-0.92629 -0.18407,-1.29368 -1.0625,-1.77149 l -10.7793,-7.93359 c -0.71792,-0.52831 -1.06049,-0.77851 -1.99414,-0.61328 l -13.03516,0.42578 c 2.5965,-7.58007 -2.91473,-17.30302 -7.19336,-17.74023 -8.19852,-1.19592 -14.25416,-0.24897 -18.64453,2.36328 -3.11994,1.17958 -6.42354,4.64944 -6.70703,9.64257 -0.0149,0.2628 -0.0199,0.52966 -0.0176,0.80079 0.0272,3.25345 1.32508,7.09923 4.70118,11.34179 -5.23207,1.92515 -9.26075,3.85024 -16.18946,5.77539 -4.21595,1.45957 -4.72009,1.64586 -4.85351,4.52344 l -1.39844,9.64453 c -0.18282,1.26157 -0.26585,2.42607 0.0254,3.69727 l 3.46875,35.5039 c -7.36075,5.64411 -5.01036,17.15787 -5.55469,31.61719 l 9.08008,20.48047 -3.06445,6.58008 c -4.34042,-1.40074 -5.19061,-0.72497 -6.49024,1.92969 l -19.25,29.69335 0.28125,3.88086 -6.26562,7.71485 c -5.58937,3.01301 -3.81165,4.80879 -5.19531,7.73437 -1.74119,-1.29407 -2.6947,-3.96608 -5.64258,-3.14843 l -6.00781,-3.35352 c 0.88491,-4.27617 -6.83374,-4.27552 -10.91016,-6.08594 -3.05874,-2.87576 -7.71148,-10.68543 -14.10352,-12.89453 -1.22427,-2.44914 -0.61368,-5.50856 -12.98632,-11.67383 l -15.95899,-11.9414 c -1.48608,-4.44059 -2.42861,-9.099 -13.1543,-9.84375 l -16.0332,-4.52539 79.52344,-84.53321 c 2.27895,-4.63314 4.95749,-9.51006 -4.55469,-6.9375 l -87.28516,88.15821 -55.53515,-12.46289 -10.06641,-8.52735 -1.04101,-10.56445 c 3.37455,-4.16169 7.80837,-13.68212 5.65429,-28.73633 2.55506,-8.24691 8.57408,-5.11898 10.625,-25.38086 -4.667,5.26566 -10.68348,11.7817 -12.05468,7.33008 l -4.38672,-16.26953 c 35.76354,-12.34315 52.18054,-34.20265 -7.57032,-30.49024 l -5.26757,-72.45312 c 0.87088,-12.87933 -9.24181,-18.21786 -24.1211,-18.42188 z"
         style="opacity:1;fill:#1a1a1a;fill-opacity:1;stroke:#000000;stroke-width:0;stroke-linecap:round;stroke-linejoin:round;stroke-miterlimit:4;stroke-dasharray:none;stroke-opacity:1"
         inkscape:connector-curvature="0" />
      <path
         inkscape:connector-curvature="0"
         id="path3478"
         d="m 512.14231,328.07686 a 294.99997,294.99997 0 0 0 -295,295 294.99997,294.99997 0 0 0 295,295.00003 294.99997,294.99997 0 0 0 295,-295.00003 294.99997,294.99997 0 0 0 -295,-295 z m 0,21.42773 A 273.57138,273.57138 0 0 1 785.71457,623.07686 273.57138,273.57138 0 0 1 512.14231,896.64717 273.57138,273.57138 0 0 1 238.57199,623.07686 273.57138,273.57138 0 0 1 512.14231,349.50459 Z"
         style="opacity:1;fill:#1a1a1a;fill-opacity:1;stroke:#000000;stroke-width:0;stroke-linecap:round;stroke-linejoin:round;stroke-miterlimit:4;stroke-dasharray:none;stroke-opacity:1" />
    </g>
  </g>
</svg>
