<?xml version="1.0" encoding="UTF-8" standalone="no"?>
<!-- Created with Inkscape (http://www.inkscape.org/) -->

<svg
   xmlns:dc="http://purl.org/dc/elements/1.1/"
   xmlns:cc="http://creativecommons.org/ns#"
   xmlns:rdf="http://www.w3.org/1999/02/22-rdf-syntax-ns#"
   xmlns:svg="http://www.w3.org/2000/svg"
   xmlns="http://www.w3.org/2000/svg"
   xmlns:sodipodi="http://sodipodi.sourceforge.net/DTD/sodipodi-0.dtd"
   xmlns:inkscape="http://www.inkscape.org/namespaces/inkscape"
   width="1052.3622"
   height="744.09448"
   id="svg2"
   version="1.1"
   inkscape:version="0.48.5 r10040"
   sodipodi:docname="smok-org-logo.svg">
  <title
     id="title2985">Smok Org Logo</title>
  <defs
     id="defs4" />
  <sodipodi:namedview
     id="base"
     pagecolor="#ffffff"
     bordercolor="#666666"
     borderopacity="1.0"
     inkscape:pageopacity="0.0"
     inkscape:pageshadow="2"
     inkscape:zoom="0.98994949"
     inkscape:cx="441.08093"
     inkscape:cy="574.95483"
     inkscape:document-units="px"
     inkscape:current-layer="layer1"
     showgrid="false"
     inkscape:window-width="1920"
     inkscape:window-height="1031"
     inkscape:window-x="0"
     inkscape:window-y="0"
     inkscape:window-maximized="1" />
  <metadata
     id="metadata7">
    <rdf:RDF>
      <cc:Work
         rdf:about="">
        <dc:format>image/svg+xml</dc:format>
        <dc:type
           rdf:resource="http://purl.org/dc/dcmitype/StillImage" />
        <dc:title>Smok Org Logo</dc:title>
        <dc:creator>
          <cc:Agent>
            <dc:title>Pavle Jonoski</dc:title>
          </cc:Agent>
        </dc:creator>
        <dc:rights>
          <cc:Agent>
            <dc:title>Smok Org (c)</dc:title>
          </cc:Agent>
        </dc:rights>
        <dc:publisher>
          <cc:Agent>
            <dc:title>Smok Org</dc:title>
          </cc:Agent>
        </dc:publisher>
        <dc:description>Copyright Smok Org (c) 2014</dc:description>
      </cc:Work>
    </rdf:RDF>
  </metadata>
  <g
     inkscape:label="Layer 1"
     inkscape:groupmode="layer"
     id="layer1"
     transform="translate(0,-308.2677)">
    <text
       xml:space="preserve"
       style="font-size:40px;font-style:normal;font-weight:normal;line-height:125%;letter-spacing:0px;word-spacing:0px;fill:#000000;fill-opacity:1;stroke:none;font-family:Sans"
       x="-582.85712"
       y="-119.06639"
       id="text2985"
       sodipodi:linespacing="125%"><tspan
         sodipodi:role="line"
         id="tspan2987"
         x="-582.85712"
         y="-119.06639" /></text>
    <path
       style="fill:#5a5a5a;fill-opacity:1;stroke:#5a5a5a;stroke-width:0;stroke-linecap:round;stroke-linejoin:round;stroke-miterlimit:4;stroke-opacity:1"
       d="m 330.46895,689.93926 69.61501,-32.09246 1.81357,-17.90754 -34.28571,-54.28571 20.97803,-7.05411 -54.87388,-90.35788 125.47489,-46.83666 0.90824,113.14875 29.50166,-9.92026 -11.98894,95.30587 93.57144,22.85714 c 10.72569,0.74475 11.66798,5.40286 13.15406,9.84345 l 65.61064,49.09774 15.73873,-49.22353 14.0367,-3.15765 3.06464,-6.57975 -8.72291,-21.19382 c 1.25861,-21.60217 4.97995,-31.33081 11.62641,-40.54635 l -2.99919,-26.60756 1.61841,-11.16622 c -1.29515,-2.34187 3.04835,-3.51182 4.85359,-4.52496 6.92871,-1.92515 10.95693,-3.8503 16.189,-5.77545 -9.00292,-11.3135 -3.23179,-19.7981 2.02285,-21.78476 4.39037,-2.61225 10.44672,-3.55852 18.64524,-2.36261 4.27863,0.43721 9.79043,10.16013 7.19393,17.7402 l 14.14634,-0.46296 12.54223,9.23044 13.41787,83.16339 -1.20967,13.89043 -13.52878,5.968 c -4.31175,12.07721 -14.56967,13.74863 -22.26275,19.9085 l -6.92079,12.93817 13.29444,35.067 c -32.5314,33.69841 -26.97775,45.6289 -56.56772,76.48393 -2.61932,2.73131 -23.92874,-1.56553 -26.80845,1.41748 l -67.15163,-36.43872 4.9515,12.92075 11.20816,138.58344 -329.28573,-19.28571 z"
       id="rect2989"
       inkscape:connector-curvature="0"
       sodipodi:nodetypes="cccccccccccccccccccccccccccccccccscccccc" />
  </g>
</svg>
