<?xml version="1.0" encoding="UTF-8" standalone="no"?>
<!-- Created with Inkscape (http://www.inkscape.org/) -->

<svg
   xmlns:dc="http://purl.org/dc/elements/1.1/"
   xmlns:cc="http://creativecommons.org/ns#"
   xmlns:rdf="http://www.w3.org/1999/02/22-rdf-syntax-ns#"
   xmlns:svg="http://www.w3.org/2000/svg"
   xmlns="http://www.w3.org/2000/svg"
   xmlns:sodipodi="http://sodipodi.sourceforge.net/DTD/sodipodi-0.dtd"
   xmlns:inkscape="http://www.inkscape.org/namespaces/inkscape"
   width="210mm"
   height="297mm"
   viewBox="0 0 744.09448819 1052.3622047"
   id="svg2"
   version="1.1"
   inkscape:version="0.91 r13725"
   sodipodi:docname="termite-platform-logo.svg">
  <defs
     id="defs4" />
  <sodipodi:namedview
     id="base"
     pagecolor="#ffffff"
     bordercolor="#666666"
     borderopacity="1.0"
     inkscape:pageopacity="0.0"
     inkscape:pageshadow="2"
     inkscape:zoom="2.8284271"
     inkscape:cx="428.14797"
     inkscape:cy="542.48901"
     inkscape:document-units="px"
     inkscape:current-layer="layer1"
     showgrid="true"
     inkscape:window-width="1920"
     inkscape:window-height="1031"
     inkscape:window-x="0"
     inkscape:window-y="0"
     inkscape:window-maximized="1">
    <inkscape:grid
       type="xygrid"
       id="grid3339" />
  </sodipodi:namedview>
  <metadata
     id="metadata7">
    <rdf:RDF>
      <cc:Work
         rdf:about="">
        <dc:format>image/svg+xml</dc:format>
        <dc:type
           rdf:resource="http://purl.org/dc/dcmitype/StillImage" />
        <dc:title></dc:title>
      </cc:Work>
    </rdf:RDF>
  </metadata>
  <g
     inkscape:label="Layer 1"
     inkscape:groupmode="layer"
     id="layer1">
    <path
       style="opacity:1;fill:#000000;fill-opacity:1;stroke:#000000;stroke-width:0;stroke-linecap:round;stroke-linejoin:round;stroke-miterlimit:4;stroke-dasharray:none;stroke-opacity:1"
       d="m 426.48918,489.86221 c 2.27311,3.69339 2.78013,5.43607 1.79568,7.41372 1.58571,2.58696 0.5872,3.79952 -0.37873,5.01018 1.14225,1.94767 1.30067,3.6955 -0.59617,5.05577 1.17895,3.06593 -0.0705,3.85294 -0.83817,5.06188 1.60082,3.51147 0.13469,4.08679 -1.07369,4.86809 0.93068,3.18517 -0.62604,3.8267 -1.48201,5.10578 1.39982,4.36174 -1.11421,3.9995 -2.10239,5.33056 0.20387,2.54623 -0.82888,3.92575 -2.57188,4.53698 0.34553,1.35385 -0.44122,1.9059 -1.68327,2.08694 -0.1543,0.72479 0.32418,1.38837 -2.00263,1.72785 -0.15661,0.42168 -0.0454,0.79441 -1.71527,0.89285 -0.12158,0.50971 -1.27047,0.48861 -2.22534,0.4094 -1.3591,0.34065 -1.51001,0.0615 -1.75516,-0.25386 -1.27545,0.34531 -2.04359,0.11888 -2.01536,-0.93648 -1.1679,-0.21777 -2.88158,-0.17449 -2.27317,-1.94724 -1.42279,-0.27511 -1.88477,-0.87265 -1.43774,-1.77465 -2.75365,-0.71999 -3.08355,-2.70768 -2.89585,-5.12972 -2.24867,-1.25517 -3.23626,-2.90663 -1.98499,-5.12789 -2.5521,-1.23346 -2.3105,-2.97025 -1.41105,-4.88291 -1.05844,-1.32768 -2.64063,-2.54977 -1.06407,-4.80651 -1.04868,-1.37862 -2.58031,-2.63196 -0.8465,-5.08476 -1.31682,-1.57205 -1.62368,-3.26218 -0.60266,-5.0877 -1.39205,-1.76157 -1.32862,-3.45422 -0.38637,-5.11542 -1.30753,-2.3964 0.42089,-4.85206 1.79906,-7.35286 -2.22104,-3.74029 -1.51939,-5.93148 0.21212,-7.55249 -1.51371,-3.54773 0.0123,-6.93354 2.97998,-10.0185 -0.72059,-2.97431 -1.34656,-5.83546 1.26042,-7.10409 -0.71404,-3.08356 -1.68605,-6.23549 1.71708,-6.58756 0.0891,-3.98291 -4.71421,-9.12899 2.69743,-9.2575 1.3858,-4.42731 2.77821,-6.97986 6.00683,-6.97986 3.21469,0 4.4739,4.22387 5.94281,6.92267 6.78135,1.08897 3.71056,4.79659 2.64061,8.93008 1.97176,0.87093 3.37314,2.41316 1.82993,6.93528 3.05988,2.07821 2.25684,4.6059 1.28352,7.24812 2.23668,2.63557 5.50589,5.72647 2.97903,10.16511 2.77067,2.48716 1.59214,4.87375 0.19797,7.29874 z"
       id="path3380"
       inkscape:connector-curvature="0"
       sodipodi:nodetypes="ccccccccccccccccccccccccccccccscccccc" />
    <ellipse
       style="opacity:1;fill:#000000;fill-opacity:1;stroke:#000000;stroke-width:0;stroke-linecap:round;stroke-linejoin:round;stroke-miterlimit:4;stroke-dasharray:none;stroke-opacity:1"
       id="path3383"
       cx="411.68634"
       cy="433.37521"
       rx="12.5"
       ry="14.500009" />
    <path
       style="opacity:1;fill:#000000;fill-opacity:1;stroke:#000000;stroke-width:0;stroke-linecap:round;stroke-linejoin:round;stroke-miterlimit:4;stroke-dasharray:none;stroke-opacity:1"
       d="m 451.82513,470.79871 0.57488,3.46656 c -17.34843,1.53867 -13.4691,7.70516 -22.7815,11.02013 -0.99714,0.14475 -1.66259,0.0116 -1.21462,-1.0545 7.96776,-9.77826 11.33042,-7.81375 23.42124,-13.43219 z"
       id="rect3404"
       inkscape:connector-curvature="0"
       sodipodi:nodetypes="ccccc" />
    <path
       sodipodi:nodetypes="ccccc"
       inkscape:connector-curvature="0"
       id="path3407"
       d="m 278.16948,374.34139 15,11 c -60,69.99999 -22.5,78.99999 -45.5,126 -3.24033,4.23663 -6.25273,6.19396 -8.5,0.5 -6,-66.50001 14,-71.50001 39,-137.5 z"
       style="opacity:1;fill:#000000;fill-opacity:1;stroke:#000000;stroke-width:0;stroke-linecap:round;stroke-linejoin:round;stroke-miterlimit:4;stroke-dasharray:none;stroke-opacity:1" />
  </g>
</svg>
